<mxfile host="app.diagrams.net" modified="2022-04-15T09:32:46.610Z" agent="5.0 (Windows NT 10.0; Win64; x64) AppleWebKit/537.36 (KHTML, like Gecko) Chrome/100.0.4896.88 Safari/537.36" etag="q7wjfAXxgxVGp6AA1O9D" version="17.4.4" type="github">
  <diagram id="2Ell18EgF14mxMVwOpf0" name="Page-1">
    <mxGraphModel dx="1185" dy="670" grid="1" gridSize="12" guides="1" tooltips="1" connect="1" arrows="1" fold="1" page="1" pageScale="1" pageWidth="827" pageHeight="1169" math="0" shadow="0">
      <root>
        <mxCell id="0" />
        <mxCell id="1" parent="0" />
        <mxCell id="61W39VolDKQ6W5OzDl-o-1" value="正常业务" style="rounded=1;whiteSpace=wrap;html=1;fontSize=15;" vertex="1" parent="1">
          <mxGeometry x="150" y="170" width="120" height="60" as="geometry" />
        </mxCell>
        <mxCell id="61W39VolDKQ6W5OzDl-o-2" value="蜜罐管理端&lt;br style=&quot;font-size: 15px;&quot;&gt;8080端口" style="rounded=1;whiteSpace=wrap;html=1;fontSize=15;" vertex="1" parent="1">
          <mxGeometry x="490" y="170" width="120" height="60" as="geometry" />
        </mxCell>
        <mxCell id="61W39VolDKQ6W5OzDl-o-3" value="蜜罐诱饵端&lt;br style=&quot;font-size: 15px;&quot;&gt;80端口" style="rounded=1;whiteSpace=wrap;html=1;fontSize=15;" vertex="1" parent="1">
          <mxGeometry x="321" y="170" width="120" height="60" as="geometry" />
        </mxCell>
        <mxCell id="61W39VolDKQ6W5OzDl-o-7" value="" style="endArrow=none;html=1;rounded=0;" edge="1" parent="1">
          <mxGeometry width="50" height="50" relative="1" as="geometry">
            <mxPoint x="130" y="120" as="sourcePoint" />
            <mxPoint x="630" y="120" as="targetPoint" />
          </mxGeometry>
        </mxCell>
        <mxCell id="61W39VolDKQ6W5OzDl-o-8" value="" style="endArrow=none;html=1;rounded=0;" edge="1" parent="1">
          <mxGeometry width="50" height="50" relative="1" as="geometry">
            <mxPoint x="130" y="120" as="sourcePoint" />
            <mxPoint x="130" y="260" as="targetPoint" />
          </mxGeometry>
        </mxCell>
        <mxCell id="61W39VolDKQ6W5OzDl-o-9" value="" style="endArrow=none;html=1;rounded=0;" edge="1" parent="1">
          <mxGeometry width="50" height="50" relative="1" as="geometry">
            <mxPoint x="130" y="260" as="sourcePoint" />
            <mxPoint x="630" y="260" as="targetPoint" />
          </mxGeometry>
        </mxCell>
        <mxCell id="61W39VolDKQ6W5OzDl-o-10" value="" style="endArrow=none;html=1;rounded=0;" edge="1" parent="1">
          <mxGeometry width="50" height="50" relative="1" as="geometry">
            <mxPoint x="630" y="260" as="sourcePoint" />
            <mxPoint x="630" y="120" as="targetPoint" />
          </mxGeometry>
        </mxCell>
        <mxCell id="61W39VolDKQ6W5OzDl-o-11" value="" style="endArrow=classic;html=1;rounded=0;" edge="1" parent="1" source="61W39VolDKQ6W5OzDl-o-13" target="61W39VolDKQ6W5OzDl-o-3">
          <mxGeometry relative="1" as="geometry">
            <mxPoint x="381" y="380" as="sourcePoint" />
            <mxPoint x="381" y="320" as="targetPoint" />
          </mxGeometry>
        </mxCell>
        <mxCell id="61W39VolDKQ6W5OzDl-o-12" value="访问" style="edgeLabel;resizable=0;html=1;align=center;verticalAlign=middle;fontSize=15;" connectable="0" vertex="1" parent="61W39VolDKQ6W5OzDl-o-11">
          <mxGeometry relative="1" as="geometry" />
        </mxCell>
        <mxCell id="61W39VolDKQ6W5OzDl-o-13" value="攻击者" style="ellipse;whiteSpace=wrap;html=1;fontSize=15;" vertex="1" parent="1">
          <mxGeometry x="321" y="390" width="120" height="80" as="geometry" />
        </mxCell>
        <mxCell id="61W39VolDKQ6W5OzDl-o-16" value="" style="endArrow=classic;html=1;rounded=0;" edge="1" parent="1">
          <mxGeometry width="50" height="50" relative="1" as="geometry">
            <mxPoint x="400" y="310" as="sourcePoint" />
            <mxPoint x="520" y="310" as="targetPoint" />
          </mxGeometry>
        </mxCell>
        <mxCell id="61W39VolDKQ6W5OzDl-o-17" value="抓包" style="rounded=1;whiteSpace=wrap;html=1;fontSize=15;" vertex="1" parent="1">
          <mxGeometry x="520" y="280" width="90" height="60" as="geometry" />
        </mxCell>
        <mxCell id="61W39VolDKQ6W5OzDl-o-18" value="" style="endArrow=classic;html=1;rounded=0;exitX=0.5;exitY=0;exitDx=0;exitDy=0;entryX=0.618;entryY=0.986;entryDx=0;entryDy=0;entryPerimeter=0;" edge="1" parent="1" source="61W39VolDKQ6W5OzDl-o-17" target="61W39VolDKQ6W5OzDl-o-2">
          <mxGeometry width="50" height="50" relative="1" as="geometry">
            <mxPoint x="390" y="390" as="sourcePoint" />
            <mxPoint x="440" y="340" as="targetPoint" />
          </mxGeometry>
        </mxCell>
        <mxCell id="61W39VolDKQ6W5OzDl-o-19" value="" style="endArrow=classic;html=1;rounded=0;exitX=0.632;exitY=-0.014;exitDx=0;exitDy=0;exitPerimeter=0;" edge="1" parent="1" source="61W39VolDKQ6W5OzDl-o-2">
          <mxGeometry width="50" height="50" relative="1" as="geometry">
            <mxPoint x="390" y="310" as="sourcePoint" />
            <mxPoint x="566" y="80" as="targetPoint" />
          </mxGeometry>
        </mxCell>
        <mxCell id="61W39VolDKQ6W5OzDl-o-20" value="入库、分析等" style="rounded=1;whiteSpace=wrap;html=1;strokeWidth=1;fontSize=15;" vertex="1" parent="1">
          <mxGeometry x="505" y="20" width="120" height="60" as="geometry" />
        </mxCell>
      </root>
    </mxGraphModel>
  </diagram>
</mxfile>
